<svg width="141" height="48" viewBox="0 0 141 48" fill="none" xmlns="http://www.w3.org/2000/svg">
<g clip-path="url(#clip0_179_388)">
<path d="M54.1885 4.94501V13.5963L68.1489 4.94501H54.1885Z" fill="white"/>
<path d="M84.5031 17.2538C83.812 17.5688 83.1719 17.9841 82.6037 18.486C81.8455 19.2316 81.1853 20.0695 80.6389 20.9796C79.6318 22.89 78.881 24.9229 78.4054 27.0267C78.4054 27.0267 77.7014 31.3475 76.6043 33.3112C76.6043 33.3112 75.2518 36.1299 73.3295 36.1949C73.3295 36.1949 71.4236 36.6111 68.5516 34.0817C68.5516 34.0817 66.9142 32.7487 65.1622 29.8552C65.1622 29.8552 63.4462 27.017 61.0916 26.6041C61.0916 26.6041 59.4346 26.279 58.5274 26.6268C57.331 26.9876 56.1977 27.5294 55.1675 28.2329C55.1675 28.2329 54.7876 28.4995 54.1851 28.9937V43.5458H72.5239C73.5215 43.5205 74.5172 43.4456 75.5073 43.3214C76.3161 43.1914 77.6653 42.9606 78.1107 42.8598H78.1402H78.1664C79.417 42.5679 80.644 42.1843 81.8374 41.7121C83.4043 41.0463 84.8942 40.2146 86.2813 39.2315L86.3337 39.1925C87.4025 38.3678 88.3895 37.4435 89.2811 36.4323C89.8718 35.7091 90.3988 34.9368 90.8562 34.124V34.1045V34.0849C91.4464 33.0446 91.9481 31.9571 92.3561 30.8338L92.3856 30.7265L92.4281 30.5835C92.9014 29.0881 93.1895 27.5411 93.2861 25.9766V25.9571C93.3526 24.7298 93.3428 23.4997 93.2567 22.2736V22.2248C93.1781 21.4933 93.0209 20.4334 92.8342 19.4873C92.4124 19.12 91.9562 18.7934 91.4719 18.512C91.4719 18.512 87.9744 15.8136 84.5031 17.2538Z" fill="white"/>
<path d="M92.3819 17.748L92.3557 17.6635C92.0325 16.6445 91.5988 15.6634 91.0622 14.7374L90.9541 14.5684L90.8886 14.4416C90.1907 13.2572 89.3578 12.1565 88.4063 11.1612C87.5284 10.2832 86.5677 9.49061 85.5376 8.79437L85.5016 8.77161L85.4688 8.74885C83.9723 7.77351 82.0631 6.75266 81.467 6.59335L81.2444 6.54133L81.0348 6.46656C79.8138 6.02333 78.5602 5.67442 77.2851 5.42294H77.2295H77.1738C76.1572 5.25176 75.1316 5.13779 74.102 5.08157H74.0431H73.9841C73.9841 5.08157 73.3685 5.03931 71.826 4.99054H68.1484L54.188 13.6418V29.0587C54.7873 28.5645 55.1704 28.2979 55.1704 28.2979C56.2006 27.5944 57.3339 27.0527 58.5304 26.6919C59.4375 26.3668 61.0945 26.6691 61.0945 26.6691C63.4491 27.069 65.1651 29.9202 65.1651 29.9202C66.9269 32.8138 68.5545 34.1467 68.5545 34.1467C71.4265 36.6761 73.3324 36.26 73.3324 36.26C75.258 36.1949 76.6072 33.3762 76.6072 33.3762C77.7043 31.4255 78.4084 27.0918 78.4084 27.0918C78.8839 24.988 79.6348 22.955 80.6418 21.0447C81.1882 20.1345 81.8484 19.2967 82.6067 18.551C83.1748 18.0491 83.8149 17.6339 84.5061 17.3188C87.9773 15.8721 91.4748 18.5803 91.4748 18.5803C91.9591 18.8617 92.4153 19.1882 92.8371 19.5556C92.735 18.9921 92.595 18.436 92.418 17.8911L92.3819 17.748Z" fill="#00BDD1"/>
<path d="M50.2583 35.1156V47.4699L72.5695 47.4536C72.5695 47.4536 74.8618 47.3691 76.1128 47.1805C76.1128 47.1805 77.6029 46.9952 79.63 46.5303C81.7922 45.9787 83.8808 45.1744 85.8521 44.1342C85.8521 44.1342 90.165 41.9559 93.0337 37.957C93.0337 37.957 95.2245 34.8815 96.0432 32.2123C96.4225 31.0249 96.7222 29.8139 96.9405 28.5873C97.0747 27.7808 97.1676 26.968 97.2189 26.1522C97.2189 26.1522 94.7137 22.7222 91.6976 20.2741C91.6976 20.2741 89.284 18.0666 86.3858 18.1381C86.3858 18.1381 83.468 17.9105 81.3034 22.5239C80.5012 24.098 79.9488 25.7858 79.666 27.5274C79.3843 29.3281 78.9202 31.0959 78.2807 32.804C78.2807 32.804 77.3441 35.7658 75.0485 37.011C75.0485 37.011 72.4778 38.7276 68.4989 35.7105C67.0944 34.5668 65.8529 33.239 64.8082 31.7636C64.4345 31.0982 64.0177 30.4574 63.5605 29.8455C63.5605 29.8455 62.0836 27.7225 59.8698 27.7745C59.8698 27.7745 56.2872 27.4494 51.0279 34.137L50.2583 35.1156Z" fill="#00488D"/>
<path d="M71.5019 1.04367H50.2583V14.4969C56.0252 10.9206 65.1423 5.26689 71.9571 1.04692L71.5019 1.04367Z" fill="#00BDD1"/>
<path d="M61.7395 26.6268C64.7708 26.6268 67.2281 24.1873 67.2281 21.1779C67.2281 18.1686 64.7708 15.729 61.7395 15.729C58.7083 15.729 56.251 18.1686 56.251 21.1779C56.251 24.1873 58.7083 26.6268 61.7395 26.6268Z" fill="#F6D965"/>
<path d="M84.9318 17.2213C86.4474 17.2213 87.6761 16.0016 87.6761 14.4969C87.6761 12.9922 86.4474 11.7724 84.9318 11.7724C83.4161 11.7724 82.1875 12.9922 82.1875 14.4969C82.1875 16.0016 83.4161 17.2213 84.9318 17.2213Z" fill="white"/>
<path d="M97.2484 23.0148C97.2254 22.5629 97.1927 22.1273 97.1534 21.7144C97.1141 21.3015 96.934 19.949 96.6523 18.5705C96.4755 17.7707 96.2921 17.1043 96.1382 16.6036C96.1291 16.5791 96.1214 16.5542 96.1153 16.5288V16.493C96.1099 16.4721 96.1033 16.4515 96.0956 16.4313V16.3988C96.0956 16.3793 96.0793 16.3565 96.0727 16.3305L96.0301 16.2785C96.0301 16.2525 96.0138 16.2232 96.0039 16.1939L95.9581 16.0671L95.9286 15.9826L95.8893 15.8656C95.8893 15.8461 95.8729 15.8233 95.8631 15.8006C95.8533 15.7778 95.8304 15.7063 95.8107 15.6575C95.7681 15.5437 95.7223 15.4234 95.6732 15.2999V15.2641C95.6503 15.2023 95.6241 15.1373 95.5979 15.0756L95.5815 15.03C95.4996 14.8317 95.4112 14.6204 95.3162 14.4026C95.3162 14.4026 95.3162 14.3668 95.29 14.3473C95.2606 14.279 95.2311 14.214 95.1983 14.1457L95.1689 14.0807C95.1001 13.9344 95.0313 13.7881 94.956 13.6418C94.3702 12.5528 93.7139 11.5026 92.9911 10.498C92.775 10.2119 92.5294 9.90299 92.2608 9.57788L92.1561 9.45759C92.0578 9.3373 91.953 9.217 91.8449 9.09671L91.7238 8.95366C91.5797 8.7911 91.429 8.62855 91.2719 8.46274C91.1572 8.3457 91.0393 8.23191 90.9214 8.13763L90.5187 7.7605L90.2239 7.4939C89.404 6.77841 88.5411 6.11288 87.6401 5.50096C87.5026 5.40993 86.4022 4.70443 85.1676 4.03144C84.2524 3.56499 83.3097 3.15352 82.3448 2.79926L82.2334 2.76025H82.2072L82.0533 2.70498H82.0238C81.5948 2.55868 80.8482 2.31484 80.0262 2.08726C79.2959 1.89545 78.6115 1.74264 77.9827 1.6256L76.0997 1.41103L74.3117 1.20945L73.9023 1.18345L73.4439 1.16069L72.7889 1.13468L72.2387 1.11517H71.9113H50.2583V47.5414L72.5695 47.5251C73.7545 47.494 74.9372 47.4028 76.1128 47.252H76.2045L76.6237 47.1805L77.0298 47.1122L77.4948 47.0342C77.8223 46.9789 78.1497 46.9204 78.4314 46.8651L78.9815 46.7514L79.345 46.6668L79.7609 46.5628C80.0033 46.501 80.2915 46.4198 80.6157 46.3255C80.8351 46.2637 81.0676 46.1922 81.3099 46.1141C81.5523 46.0361 81.811 45.9548 82.073 45.8638C82.3349 45.7728 82.61 45.672 82.8851 45.5679L83.301 45.4054C83.301 45.4054 84.0116 45.1193 85.0334 44.6056C86.2847 43.9832 87.4819 43.259 88.6127 42.4404L88.7765 42.3201C88.8813 42.242 89.0384 42.1185 89.2349 41.9592C89.4969 41.7479 89.8309 41.4618 90.2174 41.1074C90.5088 40.8408 90.8298 40.5352 91.1736 40.1906C91.5175 39.8459 91.881 39.4623 92.2576 39.0397C92.2576 39.0397 92.4868 38.7698 92.8176 38.3309C92.8634 38.2659 92.9125 38.2009 92.9649 38.1326C93.0664 37.9928 93.1745 37.8432 93.2924 37.6807C93.3481 37.6027 93.407 37.5181 93.4627 37.4336C93.5806 37.2646 93.6952 37.0825 93.8131 36.8972C93.9867 36.6208 94.1602 36.3282 94.3207 36.0291C94.3207 36.0291 95.7485 33.4445 96.1677 31.9262C96.7549 30.0802 97.1102 28.1692 97.2254 26.2367V26.2367C97.2254 26.2172 97.2254 26.1652 97.2254 26.0871C97.2254 25.762 97.2647 25.0305 97.2647 24.2145C97.2647 23.7561 97.2615 23.3757 97.2484 23.0148ZM93.2924 25.9669V25.9864C93.1928 27.5478 92.9025 29.0915 92.4279 30.5835L92.3918 30.694L92.3624 30.8013C91.9544 31.9246 91.4527 33.012 90.8625 34.0524V34.0719V34.0914C90.4051 34.9043 89.8781 35.6766 89.2873 36.3998C88.3957 37.411 87.4088 38.3352 86.34 39.16V39.16L86.2876 39.199C84.9005 40.1821 83.4106 41.0138 81.8437 41.6796C80.6503 42.1518 79.4233 42.5354 78.1727 42.8272H78.1465H78.117C77.6716 42.928 76.3224 43.1524 75.5135 43.2889C74.5235 43.4131 73.5278 43.488 72.5302 43.5132H54.1913V4.94501H71.8294C73.3718 4.99378 73.9875 5.03604 73.9875 5.03604H74.0464H74.089C75.1186 5.09226 76.1441 5.20624 77.1608 5.37741H77.2164H77.2721C78.5472 5.62889 79.8008 5.9778 81.0217 6.42102L81.2313 6.4958L81.454 6.54782C82.05 6.70713 83.9592 7.73448 85.4558 8.70332L85.4886 8.72608L85.5246 8.74884C86.5547 9.44508 87.5153 10.2376 88.3933 11.1157C89.3448 12.111 90.1777 13.2117 90.8756 14.3961L90.9411 14.5229L91.0492 14.6919C91.5858 15.6179 92.0195 16.599 92.3427 17.6179L92.3689 17.7025L92.4017 17.787C92.5787 18.3319 92.7187 18.888 92.8208 19.4516C93.0075 20.3977 93.1647 21.4575 93.2433 22.189V22.2378C93.3378 23.4786 93.3543 24.724 93.2924 25.9669V25.9669Z" fill="#00488D"/>
<path d="M29.7941 47.2195L20.7753 34.2865H10.8232V47.2195H0V0.793304H20.2415C24.3896 0.793304 27.9919 1.47821 31.0484 2.84802C34.1048 4.21784 36.4539 6.16852 38.0957 8.70007C39.7418 11.2208 40.566 14.2053 40.5682 17.6537C40.5704 21.1021 39.7353 24.0747 38.063 26.5716C36.3928 29.0706 34.0208 30.9834 30.9468 32.3098L41.4262 47.2325L29.7941 47.2195ZM27.0564 11.6358C25.3644 10.2444 22.893 9.54862 19.6422 9.54862H10.8232V25.7295H19.6422C22.8908 25.7295 25.3622 25.0229 27.0564 23.6098C28.7505 22.1966 29.5965 20.2069 29.5943 17.6407C29.5943 15.0311 28.7483 13.0295 27.0564 11.6358V11.6358Z" fill="#00488D"/>
<path d="M110.439 46.514C106.988 45.5192 104.216 44.2252 102.125 42.6322L105.799 34.5433C107.978 36.0903 110.394 37.2781 112.954 38.0611C115.631 38.9342 118.429 39.384 121.246 39.394C124.318 39.394 126.589 38.9411 128.061 38.0351C129.532 37.1291 130.267 35.924 130.265 34.4198C130.272 33.892 130.158 33.3696 129.931 32.8923C129.704 32.415 129.37 31.9956 128.955 31.6661C127.966 30.873 126.831 30.2769 125.615 29.9105C124.257 29.477 122.42 28.9904 120.103 28.4507C117.138 27.7852 114.216 26.9438 111.353 25.9311C109.089 25.0983 107.077 23.705 105.507 21.8834C103.881 20.0281 103.068 17.5529 103.068 14.4578C103.042 11.8495 103.81 9.29423 105.272 7.12653C106.741 4.9396 108.957 3.20566 111.919 1.92471C114.882 0.643762 118.501 0.00220016 122.775 3.27352e-05C125.726 -0.00393683 128.666 0.353129 131.529 1.06316C134.168 1.68254 136.693 2.71174 139.009 4.11272L135.655 12.2666C131.335 9.83689 127.015 8.62096 122.697 8.6188C119.669 8.6188 117.431 9.10538 115.983 10.0786C114.536 11.0517 113.812 12.3338 113.812 13.9246C113.812 15.5177 114.647 16.7011 116.317 17.4749C117.988 18.2487 120.537 19.0073 123.964 19.7507C126.93 20.4167 129.853 21.2581 132.718 22.2703C134.968 23.0961 136.976 24.4634 138.563 26.2497C140.187 28.0638 141 30.5174 141 33.6103C141.019 36.2013 140.239 38.7361 138.763 40.8733C137.27 43.0624 135.032 44.7963 132.05 46.0751C129.067 47.3539 125.438 47.9955 121.161 47.9998C117.534 48.0113 113.924 47.5111 110.439 46.514V46.514Z" fill="#00488D"/>
</g>
<defs>
<clipPath id="clip0_179_388">
<rect width="141" height="48" fill="white"/>
</clipPath>
</defs>
</svg>
